HIERARCHY
ROOT mixamorig:Hips
{
	OFFSET 0.000000 201.639420 0.000000
	CHANNELS 6 Xposition Yposition Zposition Xrotation Yrotation Zrotation
	JOINT mixamorig:Spine
	{
		OFFSET 0.006200 19.524994 -2.481800
		CHANNELS 3 Xrotation Yrotation Zrotation
		JOINT mixamorig:Spine1
		{
			OFFSET -0.000900 22.835007 -2.825400
			CHANNELS 3 Xrotation Yrotation Zrotation
			JOINT mixamorig:Spine2
			{
				OFFSET -0.020600 26.552490 -3.193300
				CHANNELS 3 Xrotation Yrotation Zrotation
				JOINT mixamorig:Neck
				{
					OFFSET -0.060000 30.701813 1.352200
					CHANNELS 3 Xrotation Yrotation Zrotation
					JOINT mixamorig:Head
					{
						OFFSET -0.087200 22.547607 3.670900
						CHANNELS 3 Xrotation Yrotation Zrotation
						JOINT mixamorig:HeadTop_End
						{
							OFFSET -0.830600 40.355194 7.893500
							CHANNELS 3 Xrotation Yrotation Zrotation
							End Site
							{
								OFFSET 0.000000 30.592346 0.000000
							}
						}
						JOINT mixamorig:RightEye
						{
							OFFSET -6.302100 18.118591 16.197100
							CHANNELS 3 Xrotation Yrotation Zrotation
							End Site
							{
								OFFSET 0.000000 30.592346 0.000000
							}
						}
						JOINT mixamorig:LeftEye
						{
							OFFSET 6.741500 18.382690 16.401899
							CHANNELS 3 Xrotation Yrotation Zrotation
							End Site
							{
								OFFSET 0.000000 30.592346 0.000000
							}
						}
					}
				}
				JOINT mixamorig:LeftShoulder
				{
					OFFSET 11.924900 18.230499 1.425400
					CHANNELS 3 Xrotation Yrotation Zrotation
					JOINT mixamorig:LeftArm
					{
						OFFSET 25.435989 -0.697632 -5.229300
						CHANNELS 3 Xrotation Yrotation Zrotation
						JOINT mixamorig:LeftForeArm
						{
							OFFSET 54.684776 0.000000 0.000000
							CHANNELS 3 Xrotation Yrotation Zrotation
							JOINT mixamorig:LeftHand
							{
								OFFSET 55.098175 0.000000 0.000000
								CHANNELS 3 Xrotation Yrotation Zrotation
								JOINT mixamorig:LeftHandMiddle1
								{
									OFFSET 23.369751 0.000000 0.000000
									CHANNELS 3 Xrotation Yrotation Zrotation
									JOINT mixamorig:LeftHandMiddle2
									{
										OFFSET 6.378677 0.000000 0.000000
										CHANNELS 3 Xrotation Yrotation Zrotation
										JOINT mixamorig:LeftHandMiddle3
										{
											OFFSET 6.148331 0.000000 0.000000
											CHANNELS 3 Xrotation Yrotation Zrotation
											JOINT mixamorig:LeftHandMiddle4
											{
												OFFSET 6.582504 0.000000 0.000000
												CHANNELS 3 Xrotation Yrotation Zrotation
												End Site
												{
													OFFSET -1.168900 6.395691 1.028606
												}
											}
										}
									}
								}
								JOINT mixamorig:LeftHandThumb1
								{
									OFFSET 7.235672 -3.848206 5.434273
									CHANNELS 3 Xrotation Yrotation Zrotation
									JOINT mixamorig:LeftHandThumb2
									{
										OFFSET 6.568451 -3.792297 3.792300
										CHANNELS 3 Xrotation Yrotation Zrotation
										JOINT mixamorig:LeftHandThumb3
										{
											OFFSET 6.063080 -3.500519 3.500518
											CHANNELS 3 Xrotation Yrotation Zrotation
											JOINT mixamorig:LeftHandThumb4
											{
												OFFSET 4.793182 -2.767334 2.767349
												CHANNELS 3 Xrotation Yrotation Zrotation
												End Site
												{
													OFFSET 0.101639 6.054260 1.275483
												}
											}
										}
									}
								}
								JOINT mixamorig:LeftHandIndex1
								{
									OFFSET 23.101074 -0.309540 4.992809
									CHANNELS 3 Xrotation Yrotation Zrotation
									JOINT mixamorig:LeftHandIndex2
									{
										OFFSET 6.226883 0.000000 0.000000
										CHANNELS 3 Xrotation Yrotation Zrotation
										JOINT mixamorig:LeftHandIndex3
										{
											OFFSET 6.094330 0.000000 0.000000
											CHANNELS 3 Xrotation Yrotation Zrotation
											JOINT mixamorig:LeftHandIndex4
											{
												OFFSET 5.482605 0.000000 0.000000
												CHANNELS 3 Xrotation Yrotation Zrotation
												End Site
												{
													OFFSET -1.427902 5.233032 0.797164
												}
											}
										}
									}
								}
								JOINT mixamorig:LeftHandRing1
								{
									OFFSET 22.299240 0.021149 -3.964172
									CHANNELS 3 Xrotation Yrotation Zrotation
									JOINT mixamorig:LeftHandRing2
									{
										OFFSET 6.321869 0.000000 0.000000
										CHANNELS 3 Xrotation Yrotation Zrotation
										JOINT mixamorig:LeftHandRing3
										{
											OFFSET 5.899796 0.000000 0.000000
											CHANNELS 3 Xrotation Yrotation Zrotation
											JOINT mixamorig:LeftHandRing4
											{
												OFFSET 6.517899 0.000000 0.000000
												CHANNELS 3 Xrotation Yrotation Zrotation
												End Site
												{
													OFFSET -1.637299 6.232208 0.980890
												}
											}
										}
									}
								}
								JOINT mixamorig:LeftHandPinky1
								{
									OFFSET 20.463791 -0.302338 -8.562233
									CHANNELS 3 Xrotation Yrotation Zrotation
									JOINT mixamorig:LeftHandPinky2
									{
										OFFSET 6.908646 0.000000 0.000000
										CHANNELS 3 Xrotation Yrotation Zrotation
										JOINT mixamorig:LeftHandPinky3
										{
											OFFSET 4.622849 0.000000 0.000000
											CHANNELS 3 Xrotation Yrotation Zrotation
											JOINT mixamorig:LeftHandPinky4
											{
												OFFSET 5.216080 0.000000 0.000000
												CHANNELS 3 Xrotation Yrotation Zrotation
												End Site
												{
													OFFSET -0.606308 5.116241 0.814926
												}
											}
										}
									}
								}
							}
						}
					}
				}
				JOINT mixamorig:RightShoulder
				{
					OFFSET -12.001300 18.284088 1.348900
					CHANNELS 3 Xrotation Yrotation Zrotation
					JOINT mixamorig:RightArm
					{
						OFFSET -25.308500 -0.751312 -5.164599
						CHANNELS 3 Xrotation Yrotation Zrotation
						JOINT mixamorig:RightForeArm
						{
							OFFSET -54.684429 0.000000 0.000000
							CHANNELS 3 Xrotation Yrotation Zrotation
							JOINT mixamorig:RightHand
							{
								OFFSET -55.150291 0.000000 0.000000
								CHANNELS 3 Xrotation Yrotation Zrotation
								JOINT mixamorig:RightHandMiddle1
								{
									OFFSET -23.317566 0.000000 0.000000
									CHANNELS 3 Xrotation Yrotation Zrotation
									JOINT mixamorig:RightHandMiddle2
									{
										OFFSET -6.378403 0.000000 0.000000
										CHANNELS 3 Xrotation Yrotation Zrotation
										JOINT mixamorig:RightHandMiddle3
										{
											OFFSET -6.148193 0.000000 0.000000
											CHANNELS 3 Xrotation Yrotation Zrotation
											JOINT mixamorig:RightHandMiddle4
											{
												OFFSET -6.583389 0.000000 0.000000
												CHANNELS 3 Xrotation Yrotation Zrotation
												End Site
												{
													OFFSET 1.171692 6.395905 1.029786
												}
											}
										}
									}
								}
								JOINT mixamorig:RightHandThumb1
								{
									OFFSET -7.190521 -3.860474 5.435846
									CHANNELS 3 Xrotation Yrotation Zrotation
									JOINT mixamorig:RightHandThumb2
									{
										OFFSET -6.567429 -3.791718 3.791708
										CHANNELS 3 Xrotation Yrotation Zrotation
										JOINT mixamorig:RightHandThumb3
										{
											OFFSET -6.062469 -3.500153 3.500166
											CHANNELS 3 Xrotation Yrotation Zrotation
											JOINT mixamorig:RightHandThumb4
											{
												OFFSET -4.792618 -2.767029 2.767022
												CHANNELS 3 Xrotation Yrotation Zrotation
												End Site
												{
													OFFSET -0.100327 6.053253 1.276754
												}
											}
										}
									}
								}
								JOINT mixamorig:RightHandIndex1
								{
									OFFSET -23.048981 -0.310791 4.992554
									CHANNELS 3 Xrotation Yrotation Zrotation
									JOINT mixamorig:RightHandIndex2
									{
										OFFSET -6.227539 0.000000 0.000000
										CHANNELS 3 Xrotation Yrotation Zrotation
										JOINT mixamorig:RightHandIndex3
										{
											OFFSET -6.095047 0.000000 0.000000
											CHANNELS 3 Xrotation Yrotation Zrotation
											JOINT mixamorig:RightHandIndex4
											{
												OFFSET -5.484772 0.000000 0.000000
												CHANNELS 3 Xrotation Yrotation Zrotation
												End Site
												{
													OFFSET 1.420593 5.237305 0.797056
												}
											}
										}
									}
								}
								JOINT mixamorig:RightHandRing1
								{
									OFFSET -22.246323 0.020569 -3.963762
									CHANNELS 3 Xrotation Yrotation Zrotation
									JOINT mixamorig:RightHandRing2
									{
										OFFSET -6.322128 0.000000 0.000000
										CHANNELS 3 Xrotation Yrotation Zrotation
										JOINT mixamorig:RightHandRing3
										{
											OFFSET -5.900024 0.000000 0.000000
											CHANNELS 3 Xrotation Yrotation Zrotation
											JOINT mixamorig:RightHandRing4
											{
												OFFSET -6.518356 0.000000 0.000000
												CHANNELS 3 Xrotation Yrotation Zrotation
												End Site
												{
													OFFSET 1.636398 6.232697 0.982186
												}
											}
										}
									}
								}
								JOINT mixamorig:RightHandPinky1
								{
									OFFSET -20.411011 -0.303314 -8.561701
									CHANNELS 3 Xrotation Yrotation Zrotation
									JOINT mixamorig:RightHandPinky2
									{
										OFFSET -6.907349 0.000000 0.000000
										CHANNELS 3 Xrotation Yrotation Zrotation
										JOINT mixamorig:RightHandPinky3
										{
											OFFSET -4.623840 0.000000 0.000000
											CHANNELS 3 Xrotation Yrotation Zrotation
											JOINT mixamorig:RightHandPinky4
											{
												OFFSET -5.218353 0.000000 0.000000
												CHANNELS 3 Xrotation Yrotation Zrotation
												End Site
												{
													OFFSET 0.602097 5.118835 0.816273
												}
											}
										}
									}
								}
							}
						}
					}
				}
			}
		}
	}
	JOINT mixamorig:LeftUpLeg
	{
		OFFSET 18.168400 -13.561905 -0.039000
		CHANNELS 3 Xrotation Yrotation Zrotation
		JOINT mixamorig:LeftLeg
		{
			OFFSET 0.577358 -80.825211 -3.695000
			CHANNELS 3 Xrotation Yrotation Zrotation
			JOINT mixamorig:LeftFoot
			{
				OFFSET -0.577356 -83.370262 -6.520700
				CHANNELS 3 Xrotation Yrotation Zrotation
				JOINT mixamorig:LeftToeBase
				{
					OFFSET 0.750401 -20.798306 25.135401
					CHANNELS 3 Xrotation Yrotation Zrotation
					JOINT mixamorig:LeftToe_End
					{
						OFFSET -0.000500 0.001200 19.917799
						CHANNELS 3 Xrotation Yrotation Zrotation
						End Site
						{
							OFFSET 0.000000 19.917805 0.000000
						}
					}
				}
			}
		}
	}
	JOINT mixamorig:RightUpLeg
	{
		OFFSET -18.162500 -13.585098 -0.041000
		CHANNELS 3 Xrotation Yrotation Zrotation
		JOINT mixamorig:RightLeg
		{
			OFFSET -0.595024 -80.945297 -3.631900
			CHANNELS 3 Xrotation Yrotation Zrotation
			JOINT mixamorig:RightFoot
			{
				OFFSET 0.595024 -83.218193 -6.561200
				CHANNELS 3 Xrotation Yrotation Zrotation
				JOINT mixamorig:RightToeBase
				{
					OFFSET -0.753601 -20.807106 25.115000
					CHANNELS 3 Xrotation Yrotation Zrotation
					JOINT mixamorig:RightToe_End
					{
						OFFSET 0.000299 0.001700 19.918200
						CHANNELS 3 Xrotation Yrotation Zrotation
						End Site
						{
							OFFSET 0.000000 19.918203 0.000000
						}
					}
				}
			}
		}
	}
}
MOTION
Frames: 4
Frame Time: 0.033333
-4.847634 197.089691 6.430346 2.536953 -5.896443 0.440504 18.745463 7.924806 -0.160811 -0.907439 1.018297 0.385771 -0.911405 1.031198 0.338355 3.892620 0.172512 -4.818581 -5.762302 -2.377395 -5.842073 -0.000002 -0.000000 0.000001 -0.000002 -0.000000 0.000001 -0.000002 -0.000000 0.000001 -1.854871 9.410078 6.273424 24.049479 -2.267593 -43.686730 -0.000012 -0.167257 0.000002 9.012711 17.038993 -29.623077 -0.000004 -0.001934 0.015979 0.000005 0.001926 -0.015986 0.000008 0.000007 -0.000005 -0.000004 0.000001 0.000001 -1.540044 3.690189 6.142348 3.939032 7.948707 0.746810 -0.579471 1.575002 2.538718 0.000004 0.000001 0.000002 -0.036451 -5.871497 -0.711099 -0.000002 0.000001 -0.000006 -0.000005 0.000000 0.000007 0.000001 -0.000002 -0.000003 -0.013089 3.522966 0.425683 0.000004 0.000007 -0.000011 -0.000002 -0.000001 -0.000009 -0.000002 0.000000 0.000002 -0.125577 10.805765 1.340900 -0.018086 -4.054259 -0.511077 -0.000001 -0.000001 0.000002 -0.000002 -0.000001 0.000001 2.868890 3.266976 -2.995616 18.796295 64.608692 37.819109 -0.000838 96.529301 0.000801 19.605390 -0.107829 -3.195605 0.036620 -0.714207 5.871123 0.316752 -2.078604 17.326650 0.082313 -1.068968 8.807256 -0.000002 0.000001 -0.000001 -1.849243 -3.581793 -6.586138 4.637196 -8.634118 -0.225398 -1.273756 0.137311 -2.094877 0.000001 0.000002 -0.000000 -0.304857 2.496644 6.270045 0.316751 -2.078595 17.326639 0.082335 -1.068970 8.807259 0.000001 -0.000001 0.000001 0.155314 -1.882364 5.730714 0.316766 -2.078601 17.326648 0.082316 -1.068975 8.807263 -0.000001 -0.000000 0.000001 0.630042 -6.850061 5.158368 0.316739 -2.078602 17.326655 0.082316 -1.068974 8.807263 0.000004 -0.000002 0.000001 -53.465915 -1.122790 0.014549 109.138227 10.198301 1.273368 18.230410 9.691694 -25.034004 -0.007865 0.000004 -0.000007 -0.000001 0.000002 -0.000001 -34.144775 -10.003901 -7.090207 47.792271 9.507444 5.690677 9.299589 0.696720 20.356190 -16.598955 5.411683 -19.328197 0.000001 0.000001 -0.000001 
-9.666658 197.438828 9.409008 5.041252 -7.201343 -1.796721 11.800657 6.901835 3.667373 0.330440 0.854968 -0.881901 0.338692 0.871976 -0.906303 3.828716 -0.697028 -5.240617 -5.036503 -4.412084 -3.231468 0.000001 -0.000000 -0.000000 0.000001 -0.000000 -0.000000 0.000001 -0.000000 -0.000000 -2.025246 9.675982 7.021017 31.853106 -3.038802 -37.372937 -0.000000 -2.835961 -0.000005 6.508749 15.600085 -31.857269 0.000003 -0.001933 0.015980 0.000005 0.001936 -0.015988 0.000011 0.000004 -0.000002 -0.000003 0.000001 0.000004 -1.540034 3.690181 6.142347 3.939031 7.948707 0.746806 -0.579472 1.575002 2.538716 0.000002 0.000001 0.000000 -0.036459 -5.871518 -0.711083 0.000001 0.000003 -0.000005 -0.000007 -0.000001 0.000005 -0.000001 0.000003 -0.000002 -0.013070 3.522972 0.425682 -0.000009 -0.000009 -0.000000 -0.000003 -0.000002 -0.000003 -0.000000 0.000001 -0.000002 -0.125576 10.805762 1.340892 -0.018089 -4.054256 -0.511066 0.000002 0.000001 0.000001 -0.000001 -0.000003 0.000003 3.006115 4.510318 -5.472495 20.855095 59.472520 32.846653 -0.000016 104.074632 0.000008 17.122053 1.176301 -2.353216 0.036633 -0.714211 5.871124 0.316751 -2.078608 17.326648 0.082319 -1.068967 8.807254 -0.000004 -0.000000 0.000001 -1.849237 -3.581795 -6.586139 4.637198 -8.634117 -0.225395 -1.273756 0.137310 -2.094873 -0.000002 -0.000000 0.000002 -0.304849 2.496640 6.270045 0.316740 -2.078604 17.326657 0.082333 -1.068973 8.807256 -0.000005 0.000000 0.000001 0.155325 -1.882364 5.730711 0.316741 -2.078610 17.326646 0.082326 -1.068972 8.807253 0.000003 0.000001 -0.000001 0.630050 -6.850065 5.158365 0.316735 -2.078609 17.326646 0.082321 -1.068971 8.807262 -0.000003 0.000001 -0.000001 -50.731367 -5.198536 4.272574 99.606185 10.650512 1.346749 14.908583 13.298407 -20.261855 -0.017750 0.000003 0.000004 -0.000000 0.000001 -0.000001 -37.080428 -9.531961 -7.216364 47.773212 8.913339 3.349545 14.426736 10.612801 33.038322 -19.090440 6.697429 -20.641778 -0.000001 0.000000 0.000001 
-14.946839 198.374207 11.101858 1.531076 -8.458170 -0.291138 15.744874 6.590691 1.744251 -0.755581 0.935653 -1.703102 -0.736128 0.909155 -1.740994 4.915717 -1.180370 -5.645013 -4.519546 -5.954618 -0.379243 -0.000000 0.000000 0.000000 -0.000000 0.000000 0.000000 -0.000000 0.000000 0.000000 -2.059116 9.452990 7.719154 39.410936 -7.854401 -31.381622 0.000010 -2.338229 -0.000004 7.150518 13.317165 -33.518563 0.000001 -0.001936 0.015994 -0.000012 0.000293 -0.002491 0.000008 0.000002 -0.000004 -0.000002 -0.000000 0.000002 -1.540049 3.690176 6.142364 3.939030 7.948704 0.746809 -0.579471 1.575001 2.538718 -0.000001 -0.000000 0.000000 -0.036479 -5.871517 -0.711077 0.000017 0.000007 -0.000058 -0.000007 -0.000002 0.000006 0.000000 -0.000002 0.000000 -0.013090 3.522947 0.425702 0.000012 0.000002 0.000013 0.000000 -0.000003 -0.000005 -0.000002 -0.000001 -0.000001 -0.125565 10.805757 1.340902 -0.018122 -4.055876 -0.497577 -0.000001 0.000002 -0.000001 -0.000001 -0.000001 0.000001 3.056129 5.102002 -7.317695 22.864960 52.927020 27.432128 -0.000129 104.102130 0.000103 15.722023 5.275965 -0.670080 0.036626 -0.714207 5.871124 0.316739 -2.078610 17.326645 0.082326 -1.068972 8.807258 -0.000002 0.000000 -0.000000 -1.849244 -3.581796 -6.586138 4.637197 -8.634118 -0.225400 -1.273757 0.137308 -2.094872 -0.000003 -0.000000 0.000001 -0.304850 2.496642 6.270046 0.316738 -2.078593 17.326643 0.082326 -1.068969 8.807258 -0.000002 0.000002 -0.000003 0.155324 -1.882366 5.730713 0.316737 -2.078604 17.326646 0.082328 -1.068970 8.807258 -0.000001 0.000003 0.000001 0.630043 -6.850066 5.158366 0.316753 -2.078614 17.326648 0.082316 -1.068969 8.807260 -0.000001 -0.000002 0.000000 -37.748601 -5.877907 9.716141 82.452964 10.729629 1.338935 8.659475 14.773356 -13.700378 -0.028472 0.000002 0.000001 -0.000002 -0.000001 -0.000001 -36.270026 -6.144622 -10.999613 50.518053 9.019056 -0.663520 11.364301 4.933285 25.248990 -11.437956 2.656754 -14.046147 0.000001 -0.000001 0.000001 
-20.034584 197.989288 12.811666 -2.834663 -8.527016 0.664313 21.887232 6.785373 -0.950578 -3.066611 1.129529 -1.690270 -3.039001 1.071771 -1.768163 6.503914 -1.513619 -6.266716 -2.169516 -7.527865 1.556313 0.000001 0.000000 0.000001 0.000001 0.000000 0.000001 0.000001 0.000000 0.000001 -1.897072 8.565195 8.336609 41.588732 -15.350416 -30.133514 0.000007 -0.766653 -0.000003 10.049092 10.289899 -34.060722 0.000010 -0.001921 0.015969 0.000007 0.002194 -0.018225 0.000007 0.000001 -0.000006 0.000002 -0.000001 0.000001 -1.540053 3.690179 6.142349 3.939030 7.948704 0.746808 -0.579472 1.575000 2.538717 0.000000 -0.000001 0.000004 -0.036465 -5.871514 -0.711081 -0.000000 0.000319 -0.002731 -0.000003 0.000000 0.000003 -0.000000 0.000000 -0.000000 -0.013085 3.522959 0.425681 -0.000003 0.000324 -0.002707 -0.000002 -0.000004 -0.000005 -0.000003 0.000003 -0.000001 -0.125568 10.805760 1.340898 -0.018092 -4.053974 -0.513334 0.000000 0.000002 -0.000003 0.000001 0.000001 0.000000 2.779238 4.727883 -8.944962 24.927310 48.256062 21.975008 -0.000238 97.546685 0.000248 14.736423 10.479250 2.066284 0.036627 -0.714209 5.871122 0.316740 -2.078609 17.326636 0.082323 -1.068974 8.807262 -0.000001 -0.000000 0.000002 -1.849240 -3.581796 -6.586142 4.637197 -8.634116 -0.225398 -1.273751 0.137308 -2.094872 0.000001 -0.000002 -0.000001 -0.304850 2.496641 6.270045 0.316748 -2.078597 17.326641 0.082329 -1.068971 8.807257 -0.000001 -0.000001 -0.000001 0.155320 -1.882367 5.730712 0.316745 -2.078608 17.326657 0.082321 -1.068971 8.807261 0.000002 -0.000002 0.000003 0.630046 -6.850066 5.158365 0.316747 -2.078612 17.326650 0.082320 -1.068974 8.807263 0.000001 0.000001 0.000001 -23.215453 -3.166196 16.584780 61.209662 10.614082 1.252364 1.940708 13.832514 -6.287925 -0.039470 -0.000001 0.000007 0.000000 0.000003 -0.000002 -33.708432 -3.777887 -14.175746 50.286534 8.800146 -5.886734 7.728713 1.570312 14.595035 -0.707095 -0.000001 0.000000 0.000000 0.000001 -0.000000 
